<svg width="63" height="15" viewBox="0 0 63 15" fill="none" xmlns="http://www.w3.org/2000/svg">
<g filter="url(#filter0_d_2432_10454)">
<path d="M6.30721 14L1 1H3.66764L5.73156 6.17204C5.84388 6.46093 5.9562 6.74516 6.06852 7.02473C6.18085 7.29498 6.28849 7.59785 6.39145 7.93333C6.48505 7.60717 6.58333 7.31362 6.68629 7.05269C6.79862 6.78244 6.91562 6.48889 7.0373 6.17204L9.10121 1H11.6425L6.33529 14H6.30721Z" fill="#3D3232"/>
<path d="M13.8973 13.8602C13.0643 13.8602 12.3014 13.6599 11.6088 13.2591C10.9161 12.8584 10.3639 12.3179 9.95202 11.6376C9.54953 10.9573 9.34828 10.2072 9.34828 9.3871C9.34828 8.55771 9.54953 7.80753 9.95202 7.13656C10.3639 6.45627 10.9161 5.91577 11.6088 5.51505C12.3014 5.11434 13.0643 4.91398 13.8973 4.91398C14.7397 4.91398 15.5026 5.11434 16.1859 5.51505C16.8785 5.91577 17.4261 6.45627 17.8286 7.13656C18.2404 7.80753 18.4464 8.55771 18.4464 9.3871C18.4464 10.2072 18.2404 10.9573 17.8286 11.6376C17.4261 12.3179 16.8785 12.8584 16.1859 13.2591C15.5026 13.6599 14.7397 13.8602 13.8973 13.8602ZM13.8973 11.6796C14.3185 11.6796 14.6976 11.5771 15.0346 11.372C15.3809 11.167 15.6524 10.8921 15.8489 10.5473C16.0548 10.1932 16.1578 9.80645 16.1578 9.3871C16.1578 8.95842 16.0548 8.57168 15.8489 8.22688C15.6524 7.88208 15.3809 7.60717 15.0346 7.40215C14.6976 7.19713 14.3185 7.09462 13.8973 7.09462C13.4761 7.09462 13.0923 7.19713 12.746 7.40215C12.4091 7.60717 12.1376 7.88208 11.9317 8.22688C11.7351 8.57168 11.6368 8.95842 11.6368 9.3871C11.6368 9.80645 11.7351 10.1932 11.9317 10.5473C12.1376 10.8921 12.4091 11.167 12.746 11.372C13.0923 11.5771 13.4761 11.6796 13.8973 11.6796Z" fill="#3D3232"/>
<path d="M17.5207 13.5806L20.427 9.20538L17.7594 5.19355H20.4551L21.2694 6.47957C21.3724 6.63799 21.4707 6.80573 21.5643 6.9828C21.6672 7.15986 21.7655 7.34158 21.8591 7.52796C21.9621 7.34158 22.0604 7.16452 22.154 6.99677C22.2569 6.81971 22.3599 6.64731 22.4628 6.47957L23.2631 5.19355H25.9308L23.2491 9.20538L26.1695 13.5806H23.4457L22.3084 11.7495C22.2242 11.619 22.1399 11.4839 22.0557 11.3441C21.9714 11.195 21.8919 11.0505 21.817 10.9108C21.7421 11.0505 21.6625 11.195 21.5783 11.3441C21.4941 11.4839 21.4098 11.619 21.3256 11.7495L20.1883 13.5806H17.5207Z" fill="#3D3232"/>
<path d="M30.0293 13.8602C29.0839 13.8602 28.2509 13.6645 27.5301 13.2731C26.8094 12.8817 26.2478 12.3459 25.8453 11.6656C25.4428 10.976 25.2416 10.1885 25.2416 9.30323C25.2416 8.4552 25.4382 7.70502 25.8313 7.05269C26.2244 6.39104 26.7533 5.86918 27.4178 5.4871C28.0918 5.10502 28.8359 4.91398 29.6502 4.91398C30.4833 4.91398 31.2274 5.10502 31.8826 5.4871C32.5378 5.85986 33.0526 6.3724 33.427 7.02473C33.8108 7.67706 34.0027 8.41792 34.0027 9.24731V10.1H28.864C28.63 10.1 28.4053 10.086 28.19 10.0581C27.9748 10.0301 27.7595 9.99749 27.5442 9.96021C27.6565 10.5194 27.9326 10.976 28.3726 11.3301C28.8218 11.6749 29.3928 11.8473 30.0855 11.8473C30.619 11.8473 31.0964 11.7401 31.5176 11.5258C31.9481 11.3115 32.2991 11.0459 32.5706 10.729L33.1041 12.9097C32.6829 13.2265 32.2055 13.4642 31.672 13.6226C31.1478 13.781 30.6003 13.8602 30.0293 13.8602ZM27.488 8.49247C27.956 8.38996 28.4147 8.33871 28.864 8.33871H30.3522C30.6143 8.33871 30.8624 8.34803 31.0964 8.36667C31.3304 8.3853 31.5503 8.41792 31.7563 8.46452C31.6159 7.96129 31.3584 7.56523 30.984 7.27634C30.619 6.98746 30.165 6.84301 29.6221 6.84301C29.1073 6.84301 28.658 6.99212 28.2743 7.29032C27.8999 7.57921 27.6378 7.97993 27.488 8.49247Z" fill="#3D3232"/>
<path d="M34.6758 13.5806V5.19355H36.8661V6.63333C37.1562 6.14875 37.5213 5.77599 37.9612 5.51505C38.4105 5.2448 38.9347 5.10968 39.5337 5.10968L40.0672 7.26237C39.8894 7.20645 39.6882 7.17849 39.4635 7.17849C38.7615 7.17849 38.1952 7.40681 37.7646 7.86344C37.3341 8.31075 37.1188 8.95376 37.1188 9.79247V13.5806H34.6758Z" fill="#3D3232"/>
<path d="M40.7948 13.5806V5.19355H43.2378V13.5806H40.7948ZM42.0163 3.97742C41.6512 3.97742 41.3423 3.85161 41.0896 3.6C40.8369 3.34839 40.7105 3.04086 40.7105 2.67742C40.7105 2.30466 40.8369 1.99713 41.0896 1.75484C41.3423 1.50323 41.6512 1.37742 42.0163 1.37742C42.3907 1.37742 42.6996 1.50323 42.9429 1.75484C43.1956 1.99713 43.322 2.30466 43.322 2.67742C43.322 3.04086 43.1956 3.34839 42.9429 3.6C42.6996 3.85161 42.3907 3.97742 42.0163 3.97742Z" fill="#3D3232"/>
<path d="M48.5569 13.8602C47.7238 13.8602 46.961 13.6599 46.2683 13.2591C45.5757 12.8584 45.0234 12.3179 44.6116 11.6376C44.2091 10.9573 44.0078 10.2072 44.0078 9.3871C44.0078 8.55771 44.2091 7.80753 44.6116 7.13656C45.0234 6.45627 45.5757 5.91577 46.2683 5.51505C46.961 5.11434 47.7238 4.91398 48.5569 4.91398C49.3993 4.91398 50.1621 5.11434 50.8454 5.51505C51.5381 5.91577 52.0856 6.45627 52.4881 7.13656C52.9 7.80753 53.1059 8.55771 53.1059 9.3871C53.1059 10.2072 52.9 10.9573 52.4881 11.6376C52.0856 12.3179 51.5381 12.8584 50.8454 13.2591C50.1621 13.6599 49.3993 13.8602 48.5569 13.8602ZM48.5569 11.6796C48.9781 11.6796 49.3572 11.5771 49.6941 11.372C50.0404 11.167 48.3603 9.7319 48.5569 9.3871C48.7628 9.03297 50.8173 9.80645 50.8173 9.3871C50.8173 8.95842 50.7144 8.57168 50.5085 8.22688C50.3119 7.88208 50.0404 7.60717 49.6941 7.40215C49.3572 7.19713 48.9781 7.09462 48.5569 7.09462C48.1357 7.09462 47.7519 7.19713 47.4056 7.40215C47.0686 7.60717 48.7628 9.04229 48.5569 9.3871C48.3603 9.7319 46.2964 8.95842 46.2964 9.3871C46.2964 9.80645 46.3947 10.1932 46.5912 10.5473C46.7971 10.8921 47.0686 11.167 47.4056 11.372C47.7519 11.5771 48.1357 11.6796 48.5569 11.6796Z" fill="#3D3232"/>
<path d="M53.8567 13.5806V5.19355H56.0469V6.11613C56.3465 5.72473 56.7162 5.42652 57.1561 5.22151C57.596 5.01649 58.0687 4.91398 58.5742 4.91398C59.1732 4.91398 59.7302 5.05842 60.245 5.34731C60.7691 5.62688 61.1903 6.04158 61.5086 6.5914C61.8362 7.1319 62 7.78889 62 8.56237V13.5806H59.557V8.88387C59.557 8.41792 59.4166 8.00323 59.1358 7.63978C58.855 7.27634 58.4525 7.09462 57.9283 7.09462C57.5071 7.09462 57.128 7.23907 56.7911 7.52796C56.4635 7.80753 56.2997 8.25018 56.2997 8.85591V13.5806H53.8567Z" fill="#3D3232"/>
</g>
<defs>
<filter id="filter0_d_2432_10454" x="0" y="0" width="63" height="15" filterUnits="userSpaceOnUse" color-interpolation-filters="sRGB">
<feFlood flood-opacity="0" result="BackgroundImageFix"/>
<feColorMatrix in="SourceAlpha" type="matrix" values="0 0 0 0 0 0 0 0 0 0 0 0 0 0 0 0 0 0 127 0" result="hardAlpha"/>
<feOffset/>
<feGaussianBlur stdDeviation="0.5"/>
<feColorMatrix type="matrix" values="0 0 0 0 0.152941 0 0 0 0 0.156863 0 0 0 0 0.2 0 0 0 0.2 0"/>
<feBlend mode="normal" in2="BackgroundImageFix" result="effect1_dropShadow_2432_10454"/>
<feBlend mode="normal" in="SourceGraphic" in2="effect1_dropShadow_2432_10454" result="shape"/>
</filter>
</defs>
</svg>
