<svg width="20" height="20" viewBox="0 0 20 20" fill="none" xmlns="http://www.w3.org/2000/svg">
<path d="M15.8335 3.33331H4.16683C3.70659 3.33331 3.3335 3.70641 3.3335 4.16665V15.8333C3.3335 16.2935 3.70659 16.6666 4.16683 16.6666H15.8335C16.2937 16.6666 16.6668 16.2935 16.6668 15.8333V4.16665C16.6668 3.70641 16.2937 3.33331 15.8335 3.33331Z" stroke="#14181F" stroke-width="2" stroke-linecap="round" stroke-linejoin="round"/>
<path d="M13.3335 13.3333H13.3352V13.335H13.3335V13.3333Z" stroke="#14181F" stroke-width="2" stroke-linecap="round" stroke-linejoin="round"/>
<path d="M10 13.3333H10.0017V13.335H10V13.3333Z" stroke="#14181F" stroke-width="2" stroke-linecap="round" stroke-linejoin="round"/>
<path d="M6.6665 13.3333H6.66817V13.335H6.6665V13.3333Z" stroke="#14181F" stroke-width="2" stroke-linecap="round" stroke-linejoin="round"/>
<path d="M13.3335 10H13.3352V10.0017H13.3335V10Z" stroke="#14181F" stroke-width="2" stroke-linecap="round" stroke-linejoin="round"/>
<path d="M10 10H10.0017V10.0017H10V10Z" stroke="#14181F" stroke-width="2" stroke-linecap="round" stroke-linejoin="round"/>
<path d="M6.6665 10H6.66817V10.0017H6.6665V10Z" stroke="#14181F" stroke-width="2" stroke-linecap="round" stroke-linejoin="round"/>
<path d="M3.3335 6.66669H16.6668" stroke="#14181F" stroke-width="2" stroke-linecap="round" stroke-linejoin="round"/>
<path d="M13.3335 1.66669V3.33335" stroke="#14181F" stroke-width="2" stroke-linecap="round" stroke-linejoin="round"/>
<path d="M6.6665 1.66669V3.33335" stroke="#14181F" stroke-width="2" stroke-linecap="round" stroke-linejoin="round"/>
</svg>
