<svg width="16" height="12" viewBox="0 0 16 12" fill="none" xmlns="http://www.w3.org/2000/svg">
<path d="M1.33334 2.66699L6.77662 6.47729C7.2174 6.78583 7.43779 6.94011 7.67752 6.99986C7.88927 7.05265 8.11075 7.05265 8.3225 6.99986C8.56223 6.94011 8.78262 6.78583 9.2234 6.47729L14.6667 2.66699M4.53334 11.3337H11.4667C12.5868 11.3337 13.1468 11.3337 13.5747 11.1157C13.951 10.9239 14.2569 10.618 14.4487 10.2416C14.6667 9.81382 14.6667 9.25376 14.6667 8.13366V3.86699C14.6667 2.74689 14.6667 2.18683 14.4487 1.75901C14.2569 1.38269 13.951 1.07673 13.5747 0.884979C13.1468 0.666992 12.5868 0.666992 11.4667 0.666992H4.53334C3.41324 0.666992 2.85319 0.666992 2.42536 0.884979C2.04904 1.07673 1.74308 1.38269 1.55133 1.75901C1.33334 2.18683 1.33334 2.74689 1.33334 3.86699V8.13366C1.33334 9.25376 1.33334 9.81382 1.55133 10.2416C1.74308 10.618 2.04904 10.9239 2.42536 11.1157C2.85319 11.3337 3.41324 11.3337 4.53334 11.3337Z" stroke="#667085" stroke-width="1.33333" stroke-linecap="round" stroke-linejoin="round"/>
</svg>
