<svg width="32" height="28" viewBox="0 0 32 28" fill="none" xmlns="http://www.w3.org/2000/svg">
<path d="M21.3343 19.3326L16.0009 13.9993M16.0009 13.9993L10.6676 19.3326M16.0009 13.9993V25.9993M27.1876 22.5193C28.488 21.8103 29.5154 20.6885 30.1074 19.3308C30.6995 17.9731 30.8225 16.4569 30.4572 15.0215C30.0919 13.5862 29.2589 12.3133 28.0898 11.4039C26.9207 10.4945 25.4821 10.0003 24.0009 9.99929H22.3209C21.9173 8.43828 21.1651 6.98907 20.1209 5.76061C19.0766 4.53216 17.7674 3.55642 16.2917 2.90676C14.8161 2.25711 13.2123 1.95043 11.6011 2.0098C9.98984 2.06916 8.41301 2.49302 6.98916 3.24951C5.56531 4.00599 4.33147 5.07542 3.38042 6.3774C2.42937 7.67937 1.78584 9.18 1.49823 10.7665C1.21062 12.353 1.2864 13.984 1.71987 15.537C2.15335 17.0899 2.93325 18.5244 4.00092 19.7326" stroke="#90119B" stroke-width="2.5" stroke-linecap="round" stroke-linejoin="round"/>
</svg>
