<svg width="26" height="26" viewBox="0 0 26 26" fill="none" xmlns="http://www.w3.org/2000/svg">
<path d="M5.20202 21.6782C5.91173 20.0061 7.56875 18.8334 9.49967 18.8334H16.4997C18.4306 18.8334 20.0876 20.0061 20.7973 21.6782M17.6663 10.0834C17.6663 12.6607 15.577 14.75 12.9997 14.75C10.4223 14.75 8.33301 12.6607 8.33301 10.0834C8.33301 7.50604 10.4223 5.41671 12.9997 5.41671C15.577 5.41671 17.6663 7.50604 17.6663 10.0834ZM24.6663 13C24.6663 19.4434 19.443 24.6667 12.9997 24.6667C6.55635 24.6667 1.33301 19.4434 1.33301 13C1.33301 6.55672 6.55635 1.33337 12.9997 1.33337C19.443 1.33337 24.6663 6.55672 24.6663 13Z" stroke="#344054" stroke-width="2" stroke-linecap="round" stroke-linejoin="round"/>
</svg>
